<svg width="30" height="20" viewBox="0 0 30 20" fill="none" xmlns="http://www.w3.org/2000/svg">
<path d="M27.1944 13.5953C26.1017 14.7882 24.7602 15.526 23.1371 15.5885C20.0722 15.7063 17.6997 13.9061 17.4059 11.6538C16.8212 7.17027 19.7404 4.41119 22.9375 4.41119C24.5643 4.41119 25.7753 5.03278 26.8504 6.02935L29.6553 2.87049C28.1332 1.36612 25.7922 0 22.9375 0C20.1735 0 17.6862 0.914031 15.8 2.62151V0.407595H1.90002V4.68734H10.6941V11.4952C10.6941 14.5861 9.51703 15.5885 7.22623 15.5885C5.73835 15.5885 4.2159 14.7186 2.92764 13.1089L0 16.2749C1.96306 19.0211 4.89781 20 7.39536 20C11.2608 20 13.5638 18.5884 14.7551 16.4611C16.6941 18.801 19.5364 20 22.6114 20C25.6424 20 28.1623 18.8625 30 16.6852L27.1944 13.5953Z" fill="white"/>
</svg>
